<svg width="44" height="51" viewBox="0 0 44 51" fill="none" xmlns="http://www.w3.org/2000/svg">
  <path d="M27.0417 35.5337C27.2287 36.399 27.4193 37.2607 27.599 38.126C27.6173 38.2177 27.5807 38.3423 27.5293 38.423C26.862 39.4423 26.202 40.469 25.5017 41.4627C25.3147 41.7303 25.0103 41.9613 24.706 42.0933C23.5767 42.5773 22.99 43.5417 23.155 44.8727C23.1843 45.1147 23.1587 45.3787 23.1 45.617C22.7957 46.8453 22.473 48.0737 22.154 49.2983C22.1137 49.4487 22.1063 49.599 21.8717 49.5917C21.6443 49.588 21.6553 49.4303 21.6223 49.2983C21.3033 48.081 20.9807 46.8673 20.68 45.6463C20.6213 45.4153 20.6103 45.155 20.6433 44.9203C20.8193 43.725 20.405 42.7497 19.3307 42.2107C18.6927 41.888 18.249 41.4297 17.875 40.8503C17.369 40.0657 16.8227 39.3067 16.3093 38.5293C16.236 38.4157 16.2067 38.236 16.2323 38.1003C16.4083 37.1837 16.2397 36.2707 16.4303 35.3577C17.325 32.2923 14.201 35.1853 12.7087 25.817C12.1477 26.598 8.64966 23.87 10.23 19.052C10.3327 18.733 11.8213 18.4507 11.814 18.0987L12.8223 14.3037L16.4853 11.9387L30.7853 11.5097L32.274 18.425C32.274 18.425 34.4923 18.9787 34.1843 21.791C33.924 24.167 31.1227 26.2643 31.1227 26.2643L30.8403 29.15L29.2123 31.8083L27.0343 33.8947L27.0527 35.53" fill="#EBBF91"/>
  <path d="M36.8463 45.5657C36.8463 45.5657 36.8647 45.573 36.872 45.5803C36.8647 45.5767 36.8573 45.5693 36.8463 45.5657Z" fill="#EEECE6"/>
  <path d="M31.24 4.37067C31.2107 4.587 31.196 4.81067 31.152 5.02333C31.0933 5.302 31.0127 5.577 30.9393 5.852C30.7963 6.105 30.9503 6.27733 31.13 6.39467C31.372 6.55233 31.647 6.65867 31.9 6.798C32.5637 7.161 33.11 8.118 32.6443 9.009C32.5233 9.24 32.395 9.48567 32.3473 9.73867C32.274 10.1567 32.1933 10.5857 32.5343 10.9597C32.8277 11.2787 33.176 11.4547 33.5977 11.5097C33.5977 12.2613 33.3483 12.507 32.5893 12.5143C32.5417 12.5143 32.4903 12.5143 32.4427 12.5143C32.087 12.5473 31.7643 12.7893 31.7313 13.1083C31.7093 13.3247 31.592 13.4237 31.4343 13.5007C31.295 13.5703 31.1447 13.618 30.9943 13.6657C30.2427 13.904 29.3847 13.4823 29.3077 12.705C29.293 12.551 29.2967 12.3933 29.2893 12.2357C29.2673 11.6893 28.8127 11.209 28.27 11.1577C27.7053 11.1027 27.324 11.4033 27.159 11.9863C27.1077 12.166 26.994 12.3347 26.884 12.4887C26.389 13.1817 25.19 13.1743 24.673 12.496C24.5593 12.3457 24.4017 12.199 24.233 12.122C23.9177 11.9753 23.617 12.0853 23.3823 12.32C23.0853 12.617 22.9093 12.9653 23.0487 13.4017C23.0487 13.4787 23.045 13.5557 23.0413 13.6327C22.9973 13.6473 22.946 13.6547 22.9057 13.6803C22.3557 14.014 22.1467 14.5383 22.044 15.1433C21.9633 15.62 21.549 15.895 21.0027 15.8767C20.6213 15.862 20.1337 15.4183 20.0897 15.0407C20.0677 14.8463 20.053 14.652 20.0237 14.4577C19.943 13.8893 19.6203 13.5447 19.063 13.42C18.6303 13.3247 18.337 13.4713 18.0253 13.9957C17.9263 14.1643 17.8823 14.377 17.8493 14.5787C17.8163 14.784 17.7173 14.8793 17.5267 14.9417C16.9913 15.1213 16.489 15.0993 16.0307 14.7437C15.9867 14.3147 15.939 13.8857 15.895 13.4567C15.9023 13.0937 15.884 12.738 15.488 12.5657C14.8867 12.3017 14.3953 12.4923 14.1167 13.145C13.9663 13.497 13.739 13.6657 13.387 13.7317C12.8517 13.8343 12.067 13.6253 11.9607 12.9873C11.913 12.705 11.6967 12.54 11.3777 12.5693C11.231 12.5803 11.0807 12.5913 10.9377 12.5693C10.7617 12.54 10.571 12.5107 10.4207 12.4263C10.0907 12.243 10.01 11.9313 10.054 11.5757C10.1017 11.5757 10.153 11.5647 10.2007 11.5757C10.7617 11.6747 11.2787 11.1577 11.176 10.5563C11.1467 10.384 11.0953 10.2153 11.033 10.054C10.9193 9.75333 10.9523 9.50033 11.2273 9.306C11.8763 8.844 12.0743 7.86867 11.8067 7.22333C11.506 6.49733 11.5903 6.226 12.1917 5.74933C12.4227 5.566 12.6537 5.577 12.881 5.742C13.013 5.83367 13.1707 5.90333 13.3283 5.94C14.2817 6.16367 14.905 5.808 15.202 4.884C15.3083 4.554 15.5063 4.301 15.8143 4.13233C16.511 3.74733 17.138 3.86467 17.7393 4.35233C18.326 4.82533 19.305 4.79233 19.8513 4.279C20.317 3.839 20.8377 3.57867 21.494 3.65933C21.725 3.68867 21.9597 3.696 22.1943 3.71433C22.33 3.927 22.5207 3.94533 22.726 3.839C22.9863 3.70333 22.792 3.498 22.792 3.322C23.441 3.01767 24.0423 2.99933 24.6033 3.53467C25.465 4.356 25.9307 4.125 26.4623 3.74C27.2067 3.19733 28.1527 3.46133 28.5267 4.29367C28.6073 4.46967 28.787 4.63467 28.9593 4.73C29.447 4.994 29.898 4.78133 30.3563 4.58333C30.6313 4.466 30.943 4.44033 31.24 4.37067ZM19.5653 8.91733C19.4333 8.93933 19.294 8.95033 19.162 8.98333C18.7367 9.09333 18.3737 9.30233 18.1903 9.71667C18.1463 9.81933 18.183 10.0357 18.26 10.0907C18.3443 10.1493 18.5277 10.1053 18.6523 10.0613C18.7367 10.032 18.799 9.933 18.8613 9.85967C19.0703 9.61033 19.338 9.54433 19.6497 9.55533C20.0567 9.57 20.2987 9.83767 20.5443 10.109C20.6653 10.241 20.823 10.3693 20.966 10.219C21.0467 10.131 21.065 9.89633 21.0063 9.78267C20.7057 9.21433 20.1887 8.97233 19.5653 8.91367V8.91733ZM24.8673 8.68267C24.3137 8.68267 23.793 8.99433 23.6683 9.35367C23.5987 9.55533 23.5877 9.74233 23.8077 9.86333C24.0387 9.988 24.1193 9.80833 24.222 9.66533C24.4933 9.28767 24.7573 9.23633 25.1533 9.47833C25.245 9.53333 25.3367 9.592 25.432 9.63967C25.6043 9.72767 25.718 9.62867 25.7327 9.482C25.7437 9.35 25.7033 9.185 25.63 9.075C25.432 8.78533 25.1203 8.69733 24.8637 8.68267H24.8673Z" fill="#8C6C48"/>
  <path d="M22.1943 3.71433C21.9597 3.696 21.725 3.68867 21.494 3.65933C20.834 3.575 20.317 3.839 19.8513 4.279C19.3087 4.79233 18.326 4.82167 17.7393 4.35233C17.138 3.86833 16.5073 3.74733 15.8143 4.13233C15.5063 4.301 15.3083 4.55767 15.202 4.884C14.9013 5.808 14.2817 6.16367 13.3283 5.94C13.1707 5.90333 13.0093 5.83733 12.881 5.742C12.65 5.577 12.4227 5.566 12.1917 5.74933C11.5903 6.226 11.506 6.49733 11.8067 7.22333C12.0743 7.865 11.8763 8.844 11.2273 9.306C10.9523 9.50033 10.9193 9.75333 11.033 10.054C11.0953 10.2153 11.1467 10.3877 11.176 10.5563C11.2787 11.1577 10.7617 11.6747 10.2007 11.5757C10.153 11.5683 10.1017 11.5757 10.054 11.5757C10.0173 11.5757 9.98067 11.572 9.944 11.5683C10.0173 11.4547 10.076 11.3263 10.164 11.2237C10.2923 11.077 10.4647 10.967 10.5747 10.813C10.7543 10.5563 10.7287 10.2997 10.56 10.0173C10.4243 9.79367 10.3143 9.515 10.3033 9.25833C10.2887 8.88433 10.494 8.59833 10.846 8.41867C11.374 8.151 11.5023 7.68533 11.198 7.16833C11.011 6.84933 10.8533 6.53767 10.8643 6.149C10.8863 5.434 11.3813 4.85467 12.089 4.80333C12.265 4.78867 12.4667 4.88033 12.6317 4.96467C13.0533 5.18833 13.4677 5.41933 13.97 5.269C14.5677 5.08933 14.927 4.68967 15.004 4.07733C15.114 3.21567 16.1993 2.64367 16.7933 2.83433C17.0133 2.904 17.226 3.02133 17.4203 3.146C18.293 3.71433 18.8833 3.68867 19.6937 3.02133C19.7707 2.959 19.8477 2.90033 19.9247 2.838C20.735 2.17433 21.7653 2.464 22.1137 3.46133C22.143 3.54567 22.165 3.63 22.1907 3.71067L22.1943 3.71433Z" fill="#A79071"/>
  <path d="M23.045 13.4053C22.9093 12.969 23.0817 12.6207 23.3787 12.3237C23.6133 12.0853 23.914 11.979 24.2293 12.1257C24.398 12.2027 24.5557 12.3493 24.6693 12.4997C25.1863 13.178 26.3853 13.1817 26.8803 12.4923C26.9903 12.3383 27.1077 12.1697 27.1553 11.99C27.3203 11.407 27.7017 11.1063 28.2663 11.1613C28.809 11.2127 29.2637 11.693 29.2857 12.2393C29.293 12.397 29.2857 12.5547 29.304 12.7087C29.381 13.486 30.2353 13.9077 30.9906 13.6693C31.141 13.6217 31.2913 13.574 31.4307 13.5043C31.5883 13.4237 31.702 13.3247 31.7277 13.112C31.7607 12.793 32.087 12.551 32.439 12.518C32.4867 12.5143 32.538 12.518 32.5857 12.518C33.3447 12.5107 33.594 12.265 33.594 11.5133C33.6527 11.5133 33.7113 11.5133 33.77 11.5133C33.8287 11.671 33.9387 11.825 33.9423 11.9827C33.957 12.4813 33.7847 12.9067 33.319 13.156C32.6993 13.4897 32.3987 13.992 32.4097 14.7033C32.4133 15.0113 32.34 15.323 32.296 15.631C32.219 16.1627 32.142 16.6943 32.0503 17.2223C32.0357 17.3103 31.977 17.435 31.9147 17.4533C31.8487 17.4717 31.7423 17.3947 31.669 17.3397C31.1117 16.918 31.185 16.324 31.2767 15.7557C31.394 15.026 30.9247 14.366 30.1987 14.3477C29.513 14.333 29.2563 13.9187 29.172 13.365C29.1243 13.0607 29.084 12.7527 28.9923 12.463C28.864 12.0377 28.633 11.8727 28.2627 11.8653C27.775 11.858 27.5183 12.023 27.3533 12.4557C27.2067 12.8443 27.0453 13.2147 26.675 13.4567C26.07 13.8527 25.2487 13.7867 24.717 13.2843C24.6033 13.178 24.497 13.057 24.376 12.958C23.9983 12.6353 23.4227 12.7637 23.188 13.2073C23.1513 13.2807 23.0927 13.3393 23.0413 13.4053H23.045Z" fill="#6F5021"/>
  <path d="M9.93666 11.5683C9.97333 11.5683 10.01 11.572 10.0467 11.5757C10.0027 11.9313 10.0833 12.2467 10.4133 12.4263C10.5673 12.5107 10.7543 12.5437 10.9303 12.5693C11.0733 12.5913 11.2237 12.584 11.3703 12.5693C11.6893 12.5437 11.9093 12.705 11.9533 12.9873C12.0597 13.6253 12.8443 13.8343 13.3797 13.7317C13.7317 13.6657 13.9627 13.4933 14.1093 13.145C14.388 12.4887 14.8793 12.3017 15.4807 12.5657C15.8803 12.7417 15.8987 13.0937 15.8877 13.4567C15.7923 13.3943 15.697 13.332 15.6017 13.266C14.9893 12.8223 14.542 13.2 14.3623 13.7317C14.2633 14.0323 14.036 14.2817 13.717 14.3477C13.2513 14.443 12.793 14.5823 12.6573 15.0993C12.584 15.3817 12.5803 15.7007 12.6207 15.994C12.6977 16.533 12.6463 17.0133 12.1807 17.3653C12.1037 17.424 11.979 17.4717 11.8947 17.4533C11.836 17.4387 11.7737 17.3067 11.7627 17.2187C11.6343 16.291 11.517 15.3633 11.3923 14.4393C11.3227 13.9113 11.0733 13.5117 10.5673 13.288C9.99899 13.0387 9.60666 12.375 9.74966 11.803C9.77166 11.715 9.86333 11.6453 9.92566 11.5683H9.93666Z" fill="#6F5021"/>
  <path d="M26.4587 3.74C25.927 4.125 25.4613 4.356 24.5997 3.53467C24.0387 2.99933 23.4373 3.01767 22.7883 3.322C22.616 3.036 22.583 2.761 22.8213 2.486C23.1403 2.11933 23.5363 1.97633 24.0093 2.08267C24.398 2.17067 24.6253 2.431 24.75 2.805C24.9003 3.25233 25.124 3.42833 25.4907 3.35133C25.6593 3.31467 25.8207 3.19 25.9527 3.069C26.268 2.78667 26.5577 2.47867 27.016 2.442C27.698 2.387 28.4387 2.739 28.534 3.50533C28.5743 3.828 28.7943 3.96733 29.062 4.07C29.3223 4.169 29.513 4.07 29.6853 3.87933C29.9237 3.619 30.2317 3.509 30.5653 3.62267C30.9137 3.74 31.1593 3.98933 31.2363 4.37067C30.9393 4.43667 30.6277 4.466 30.3527 4.58333C29.8943 4.78133 29.4433 4.994 28.9557 4.73" fill="#A79071"/>
  <path d="M40.0657 41.9907C38.1407 38.6283 34.1513 38.621 30.8 37.719C30.2573 37.587 30.3087 36.8133 29.9347 36.454C29.1537 35.1377 26.9097 35.7903 27.4853 33.7663C29.667 32.1273 31.317 30.0043 31.3133 27.1553C31.746 25.52 33.8433 25.2597 34.309 22.4657C34.7343 20.9623 34.5253 18.2893 32.5197 18.315C32.8863 16.9327 32.56 14.7913 33.5427 13.761C34.8443 13.0753 34.8077 11.066 33.528 10.384C33.0697 10.142 33.4987 9.69833 33.5793 9.35C34.2467 7.60467 33.1357 5.91067 31.6543 5.52933C32.5967 3.93433 30.602 2.123 29.1793 3.46867C28.8237 1.628 26.444 1.26867 25.4283 2.783C24.9407 1.254 22.9497 0.967999 22.1723 2.387C20.8193 1.34567 19.9027 2.08267 18.7587 2.89667C17.4093 2.92967 16.643 1.375 15.1543 2.72433C14.2523 3.267 14.5237 5.49633 12.9983 4.42567C11.88 3.72533 10.5013 4.62367 10.285 5.80067C9.94399 6.53033 11.1137 7.60467 10.5343 7.88333C9.69099 8.261 9.50399 9.372 9.86699 10.065C10.2227 10.5527 9.78266 10.6223 9.52232 10.989C8.86232 11.9057 9.20699 13.2843 10.2557 13.7757C10.604 13.9407 10.7213 14.1717 10.769 14.5127C10.9413 15.7557 11.1723 17.0427 11.3153 18.2783C9.19232 18.37 9.06032 21.0357 9.52966 22.6087C9.94399 24.1413 10.802 25.3623 12.144 26.224C12.342 26.3523 12.441 26.4807 12.4667 26.7007C12.496 29.4727 13.6363 31.8633 15.961 33.4327C16.5293 33.792 16.4303 34.2907 16.2507 34.8627C15.9573 35.398 15.2167 35.4163 14.7363 35.7353C13.75 36.102 13.7133 37.07 13.134 37.6933C9.67999 38.6247 5.56599 38.6357 3.66666 42.1923C12.969 52.723 30.9943 52.7523 40.1977 42.0897C40.1537 42.0567 40.1023 42.0273 40.0657 41.9833V41.9907ZM28.512 38.06C28.941 37.499 28.8457 36.861 28.05 36.7877C27.6797 36.6483 27.797 36.1717 27.6833 35.816C28.71 36.0837 30.0263 36.7107 29.8283 37.961C29.4763 40.3993 29.3663 42.9257 28.798 45.3053C27.522 44.7223 26.2277 41.6533 24.915 43.736C24.9957 44.5427 24.266 44.693 23.7967 45.144C23.6133 44.253 23.7123 43.1677 24.651 42.7937C26.521 41.8293 27.2287 39.6257 28.512 38.0563V38.06ZM27.9913 37.5173L28.0097 37.2167C28.2737 37.235 28.1857 37.367 28.1417 37.5503C28.0903 37.5393 28.039 37.532 27.9877 37.521L27.9913 37.5173ZM33.3813 19.2537C34.705 21.3803 33.4803 24.3063 31.504 25.5713C32.0137 23.7783 31.328 21.1273 33.121 20.119C33.066 19.459 32.5417 19.8953 32.186 20.0823C32.1347 19.3233 32.648 18.5753 33.3813 19.25V19.2537ZM10.5783 13.288C9.35366 12.6903 9.65799 11.5097 10.571 10.8167C11.0183 10.043 9.56632 9.031 10.846 8.42233C11.979 7.89067 10.8387 6.97033 10.8643 6.15267C10.8863 5.43767 11.3813 4.85833 12.089 4.807C16.115 6.63667 13.9187 2.618 16.7933 2.838C17.8347 3.366 18.678 4.004 19.6937 3.025C22.0183 1.21367 21.8497 4.31933 22.726 3.84267C22.9863 3.707 22.792 3.50167 22.792 3.32567C22.2933 2.596 23.3163 1.86633 24.0093 2.08633C24.398 2.17433 24.6253 2.43467 24.75 2.80867C25.2963 4.27167 26.18 2.46767 27.016 2.442C28.732 2.343 28.116 3.641 29.062 4.07C29.3223 4.169 29.513 4.07 29.6853 3.87933C30.1693 3.289 31.119 3.65567 31.24 4.37067C31.3573 4.92433 30.4957 6.028 31.3573 6.149C33.4217 6.38733 33.3703 8.61667 32.7727 10.1237C32.7213 10.9303 33.891 11.1943 33.946 11.9863C33.9607 12.485 33.7883 12.9103 33.3227 13.1597C31.922 13.9407 32.494 15.895 32.054 17.226C32.0063 17.468 31.856 17.523 31.669 17.3433C30.6093 16.544 32.0613 14.4723 30.1987 14.3513C28.578 14.4173 29.6597 11.9497 28.2627 11.869C27.775 11.8617 27.5183 12.0267 27.3533 12.4593C27.093 13.6253 25.6043 14.146 24.7207 13.288C24.343 12.76 23.5583 12.5327 23.1917 13.211C22.8213 13.6987 23.4447 14.3843 22.6527 14.6557C21.7837 15.1837 22.605 16.4853 21.2227 16.6137C19.3123 16.863 20.5113 14.4577 19.228 14.1167C18.513 13.9847 18.095 14.652 17.963 15.2533C17.6257 16.0013 16.28 15.9353 16.1113 15.081C15.9757 14.553 15.9647 14.003 15.8987 13.4603C14.4137 12.2833 14.7217 14.036 13.728 14.3513C11.858 14.4577 13.2477 16.5697 12.1917 17.369C11.1577 17.8163 12.0597 13.5373 10.582 13.2917L10.5783 13.288ZM11.1687 24.5153C8.23899 21.1493 11.2493 16.9217 11.5867 20.042C11.2897 19.921 11.0477 19.5287 10.7543 19.9503C10.813 20.3537 11.121 20.5407 11.4437 20.6947C12.232 22.044 11.9203 24.0277 12.3017 25.6153C11.825 25.2817 11.4583 24.9443 11.1687 24.5153ZM15.433 32.1787C12.133 29.7 12.958 22.4803 11.957 18.513C11.8653 17.6513 13.5593 18.216 13.189 15.5173C13.497 14.5713 14.3293 15.6493 15.0993 13.7573C15.389 14.0177 15.2937 14.3807 15.3157 14.729C15.3707 16.2873 17.6513 17.1123 18.4983 15.5907C18.6927 15.323 18.634 14.707 19.096 14.762C19.6277 14.993 19.085 15.8143 19.5507 16.1957C20.1227 17.9703 22.9057 17.424 22.7663 15.587C22.8067 15.4623 22.8837 15.301 22.9863 15.2497C23.7857 14.883 23.661 14.1497 23.749 13.376C24.695 14.421 26.4953 14.8207 27.445 13.607C27.753 13.3137 27.7127 12.529 28.226 12.5473C28.4607 12.595 28.468 12.7967 28.4607 12.9947C28.292 14.003 29.0657 14.9197 30.074 15.0407C31.3353 15.1213 29.8357 17.215 31.5333 17.9923C31.8413 18.0327 31.8963 18.1867 31.8523 18.4983C31.515 20.9587 31.1997 23.4227 30.877 25.8867C30.7523 28.9373 29.722 31.4123 27.2067 33.2273C27.291 33.2493 27.3717 33.2713 27.456 33.2897C27.4597 33.2823 27.467 33.275 27.4707 33.264C27.467 33.2713 27.4633 33.2823 27.456 33.2897C27.3717 33.2677 27.2873 33.2457 27.203 33.2237C27.0123 33.4033 26.8107 33.5683 26.6237 33.7517C26.653 34.1 26.246 33.9607 26.1507 34.2027C25.96 34.397 25.7363 34.551 25.553 34.749C25.5713 34.958 25.454 35.0167 25.2707 34.9983C25.2707 35.2367 25.1093 35.2843 24.915 35.2917C23.8187 36.344 22.286 36.0323 20.9073 36.0653C18.6193 35.8123 17.182 33.4767 15.4257 32.1787H15.433ZM26.5613 34.2833C26.5613 34.2833 26.5247 34.3127 26.5063 34.3273C26.4917 34.309 26.477 34.287 26.444 34.243C26.51 34.188 26.5393 34.2173 26.5613 34.2833ZM14.4833 36.6227C14.9233 36.201 15.4843 35.9847 16.1077 35.7647C16.0307 36.1387 15.9647 36.4577 15.8987 36.795C13.3797 36.8243 17.5853 40.898 17.93 41.9137C19.1473 43.0467 20.3867 43.01 20.0787 45.1293C19.6827 44.8617 19.316 44.6747 19.0447 44.3997C18.9603 43.6773 18.524 42.8963 17.6147 42.977C16.731 43.7397 15.9683 44.671 15.0003 45.32C14.7803 43.7213 13.31 37.3633 14.487 36.6227H14.4833ZM15.8987 37.7777C15.873 37.7923 15.8437 37.8107 15.818 37.8253C15.719 37.675 15.6237 37.5247 15.5247 37.3743C15.565 37.3523 15.6053 37.3267 15.6457 37.3047C15.73 37.4623 15.818 37.62 15.9023 37.7777H15.8987ZM20.6837 49.599C14.5383 49.3093 8.71566 46.5337 4.37432 42.2217C6.17832 38.9693 10.2007 39.1893 13.3687 38.2213C13.6693 40.5387 14.047 42.8267 14.3037 45.1477C14.3917 45.4813 14.388 45.8553 14.7803 45.9837C15.939 45.9177 16.6393 44.3777 17.5707 43.7287C17.9007 43.3363 18.172 43.67 18.304 44.0257C18.1977 44.517 18.469 49.1517 19.36 47.8537C19.173 46.9407 18.8283 46.0753 18.8943 45.1073C20.7497 45.6023 20.4637 48.0883 21.0833 49.599C20.911 49.599 20.7973 49.6027 20.6837 49.599ZM21.868 49.5953C21.6407 49.5917 21.6517 49.434 21.6187 49.302C21.3253 47.8463 20.6617 46.409 20.6397 44.924C20.8157 43.7287 20.4013 42.7533 19.327 42.2143C17.8677 41.4333 17.281 39.7833 16.3057 38.533C16.1517 37.1947 16.8227 35.816 16.9803 34.4557C17.1087 34.5473 17.7137 34.991 17.842 35.068H17.8383C19.393 36.949 22.2127 37.037 24.3723 36.322L24.387 36.3293C24.4603 36.2853 24.5337 36.245 24.607 36.201H24.6217C24.684 36.1533 24.75 36.113 24.816 36.069C24.8747 36.0287 24.9333 35.9883 24.9883 35.948C24.9443 35.6547 25.1973 35.7757 25.344 35.6547C25.3257 35.5007 25.4027 35.4567 25.542 35.486C25.7547 35.288 25.9417 35.079 26.1763 34.914C26.1323 34.749 26.2167 34.7343 26.345 34.7673C26.3633 34.749 26.3817 34.7307 26.4 34.716C26.3853 34.562 26.4623 34.5143 26.6017 34.5437C26.642 34.5033 26.6823 34.463 26.7227 34.4227C26.7703 34.4593 26.8217 34.496 26.8693 34.5327C27.7163 38.4853 27.9547 38.1333 25.4943 41.4663C24.365 42.4563 22.781 42.933 23.1513 44.8763C23.0927 46.3797 22.451 47.8317 22.1503 49.3057C22.11 49.456 22.099 49.6063 21.868 49.599V49.5953ZM38.7457 42.8633C34.3933 46.9223 28.6953 49.5147 22.6967 49.6063C23.2797 48.0187 23.0487 45.826 24.7903 45.0927C24.8233 45.1 24.8527 45.111 24.8857 45.1183C24.8783 45.9397 24.7647 46.728 24.4493 47.4943C24.3797 47.7143 24.299 47.949 24.563 48.092C25.6667 47.5823 25.366 45.474 25.5163 44.385C25.3843 43.659 25.938 43.252 26.4 43.9413C27.1773 44.3557 28.655 47.0287 29.3957 45.606C29.8503 43.1603 30.0227 40.6853 30.426 38.225C33.6673 39.1307 37.554 38.984 39.4863 42.196C39.215 42.4417 38.9803 42.6543 38.742 42.867L38.7457 42.8633Z" fill="#403318"/>
  <path d="M25.344 35.6547H25.3403V35.6583L25.344 35.6547Z" fill="#403318"/>
  <path d="M16.0307 14.7437C16.4927 15.0957 16.9913 15.1177 17.5267 14.9417C17.7173 14.8793 17.8163 14.784 17.8493 14.5787C17.8823 14.3807 17.9263 14.168 18.0253 13.9957C18.337 13.4713 18.6303 13.3247 19.063 13.42C19.6203 13.5447 19.9393 13.8893 20.0237 14.4577C20.053 14.652 20.064 14.8463 20.0897 15.0407C20.1337 15.4183 20.6213 15.862 21.0027 15.8767C21.5527 15.895 21.967 15.6237 22.044 15.1433C22.1467 14.5383 22.3557 14.014 22.9057 13.6803C22.946 13.6547 22.9973 13.6473 23.0413 13.6327C23.21 14.1387 23.1073 14.4137 22.6563 14.6483C22.3593 14.8023 22.2127 15.037 22.209 15.378C22.209 16.1407 21.9597 16.445 21.2227 16.6063C20.8193 16.6943 20.053 16.412 19.9833 15.84C19.9503 15.5687 19.921 15.2973 19.91 15.0223C19.8953 14.5677 19.613 14.179 19.2243 14.1093C18.7953 14.0323 18.2857 14.3147 18.1353 14.7253C18.073 14.8977 18.04 15.0847 17.9593 15.246C17.7723 15.6163 17.446 15.7887 17.0427 15.752C16.61 15.7117 16.2067 15.598 16.1077 15.0773C16.0857 14.9637 16.0563 14.8537 16.0307 14.7437Z" fill="#6F5021"/>
  <path d="M19.3197 15.642C19.019 15.5943 18.9383 15.84 18.832 16.027C18.5937 16.445 18.3113 16.8227 17.8457 16.9913C16.577 17.446 15.521 16.8153 15.3047 15.466C15.279 15.2937 15.2497 15.1213 15.2167 14.9013C14.905 15.1983 14.6703 15.5393 14.344 15.7117C14.014 15.8877 13.596 15.8987 13.2183 15.983C13.2073 15.829 13.178 15.6713 13.1927 15.5173C13.211 15.29 13.3247 15.1323 13.5703 15.0993C13.6583 15.0883 13.7427 15.0627 13.8307 15.0443C14.4063 14.927 14.773 14.597 14.916 14.014C14.938 13.9187 15.037 13.8417 15.103 13.7573C15.169 13.8563 15.279 13.948 15.2937 14.0543C15.3267 14.2743 15.3047 14.5053 15.3157 14.7327C15.3597 15.5063 15.972 16.1993 16.7677 16.39C17.402 16.5403 18.139 16.2103 18.4983 15.5943C18.5937 15.4293 18.645 15.2313 18.7073 15.048C18.7697 14.8573 18.8833 14.7363 19.096 14.7693C19.3087 14.8023 19.3417 14.9637 19.338 15.147C19.3343 15.312 19.327 15.4807 19.3233 15.6457L19.3197 15.642Z" fill="#BC9166"/>
  <path d="M28.446 13.5263C28.2883 13.6803 28.116 13.8197 27.9803 13.9883C27.3057 14.8243 26.4257 15.213 25.3697 15.0883C25.014 15.048 24.684 14.7877 24.3467 14.619C24.266 14.5787 24.2 14.5053 24.0753 14.399C23.9653 15.2643 23.7417 15.9757 22.7443 15.9977C22.748 15.862 22.726 15.7153 22.7663 15.587C22.8067 15.4623 22.8837 15.301 22.9863 15.2497C23.4777 15.0187 23.6647 14.6263 23.6867 14.1167C23.6977 13.904 23.7233 13.6913 23.749 13.3723C23.936 13.5043 24.079 13.563 24.1633 13.6693C24.9223 14.6557 26.752 14.542 27.445 13.6033C27.6063 13.387 27.7017 13.123 27.8153 12.8737C27.8997 12.6867 27.984 12.4923 28.2297 12.5437C28.4643 12.5913 28.4717 12.793 28.4643 12.991C28.457 13.167 28.4533 13.343 28.446 13.5227V13.5263Z" fill="#BF9767"/>
  <path d="M33.7737 11.5097C33.715 11.5097 33.6563 11.5097 33.5977 11.5097C33.1797 11.451 32.8277 11.2787 32.5343 10.9597C32.1933 10.5857 32.274 10.1567 32.3473 9.73867C32.3913 9.48567 32.5197 9.24 32.6443 9.009C33.11 8.11433 32.5637 7.161 31.9 6.798C31.647 6.65867 31.3683 6.556 31.13 6.39467C30.954 6.27733 30.7963 6.105 30.9393 5.852C31.0053 6.05367 31.1373 6.13067 31.3573 6.149C32.3217 6.22967 33.1357 7.09867 33.1907 8.07033C33.2163 8.52133 33.143 8.943 32.956 9.35733C32.8497 9.592 32.7947 9.86333 32.7727 10.12C32.747 10.428 32.89 10.6737 33.143 10.879C33.374 11.0623 33.5647 11.297 33.7737 11.5097Z" fill="#A79071"/>
  <path d="M22.6783 16.291C22.8103 16.7053 22.6453 17.0537 22.3997 17.3653C21.835 18.0803 20.4087 18.271 19.7633 17.2003C19.514 16.7823 19.316 16.357 19.338 15.8583C19.4077 15.972 19.4993 16.0783 19.547 16.1993C19.8147 16.8593 20.2803 17.2517 20.999 17.2957C21.725 17.3397 22.2603 17.0207 22.605 16.3827C22.6233 16.3497 22.6527 16.324 22.6747 16.2947L22.6783 16.291Z" fill="#BC9166"/>
  <path d="M30.5947 15.8803C29.92 15.928 29.3113 15.774 28.9007 15.2057C28.5927 14.7803 28.4387 14.2817 28.4827 13.739C28.7613 14.3807 29.1793 14.8683 29.909 15.0077C29.9677 15.0187 30.0227 15.037 30.0813 15.0407C30.6057 15.0957 30.7633 15.3487 30.5983 15.8767L30.5947 15.8803Z" fill="#BF9767"/>
  <path d="M23.7527 44.8543C23.7637 44.9313 23.7783 45.012 23.8003 45.1477C24.2697 44.7003 24.9993 44.5463 24.9187 43.7397C25.2157 43.3217 25.5603 42.9807 26.1103 42.9477C26.224 43.021 26.3523 43.0833 26.4513 43.175C27.1333 43.824 27.808 44.4803 28.49 45.1293C28.5743 45.21 28.6953 45.2503 28.8017 45.309C28.8493 45.1953 28.9227 45.0853 28.9373 44.968C29.1317 43.5563 29.3187 42.1483 29.4983 40.7367C29.6157 39.8127 29.722 38.8887 29.832 37.9647C29.9163 37.6053 29.8137 37.2863 29.6267 36.9857C29.1867 36.2743 28.457 36.0617 27.687 35.8197C27.742 36.1167 27.7713 36.3697 27.841 36.6153C27.863 36.6887 27.973 36.7803 28.0537 36.7913C28.7247 36.872 28.9557 37.3083 28.622 37.8877C28.589 37.9463 28.5523 38.005 28.512 38.0637C27.7933 39.1197 27.0637 40.1683 26.3633 41.239C25.9233 41.91 25.4137 42.4673 24.651 42.801C24.0717 43.054 23.7637 43.5563 23.7233 44.2017C23.7307 44.3997 23.738 44.6013 23.7453 44.7993C23.7453 44.8177 23.749 44.8397 23.7527 44.858V44.8543Z" fill="#87C4DF"/>
  <path d="M20.3207 46.684C20.2217 45.9287 19.6093 45.232 18.8943 45.1073C18.9163 45.5437 18.9383 45.9653 18.9603 46.3907C19.063 46.717 19.1693 47.0433 19.2683 47.3697C19.316 47.5273 19.3747 47.696 19.3637 47.8537C19.3563 47.9527 19.239 48.07 19.14 48.1213C19.0887 48.147 18.9163 48.0627 18.8907 47.993C18.6633 47.3403 18.3187 46.7243 18.326 45.9983C18.3333 45.342 18.315 44.682 18.3077 44.0257C18.2197 43.8753 18.1647 43.681 18.0363 43.5893C17.875 43.472 17.71 43.5893 17.5743 43.7287C16.8777 44.418 16.1737 45.1 15.4697 45.782C15.279 45.9653 15.0663 46.0937 14.784 45.9873C14.498 45.8773 14.388 45.6573 14.3623 45.3713C14.355 45.298 14.3257 45.2247 14.3073 45.1513C14.3037 45.0743 14.3 44.9937 14.289 44.9167C14.113 43.5967 13.937 42.2767 13.7573 40.9567C13.6693 40.326 13.5703 39.699 13.4787 39.072C13.4457 38.797 13.409 38.5257 13.3723 38.225C13.2513 38.2507 13.167 38.2653 13.0863 38.2873C11.396 38.6833 9.71666 39.138 8.01166 39.4607C6.32132 39.7833 5.30932 40.898 4.37799 42.2253C4.62366 42.449 4.85099 42.658 5.08199 42.867C5.10766 42.8963 5.12966 42.9293 5.15899 42.955C7.56432 45.1477 10.2483 46.8893 13.31 48.0407C15.6933 48.939 18.1463 49.467 20.6873 49.6027C20.801 49.61 20.9147 49.6027 21.087 49.6027C20.8267 48.6017 20.5737 47.6447 20.3243 46.6877L20.3207 46.684Z" fill="#87C4DF"/>
  <path d="M14.2743 40.4543C14.465 41.9467 14.6557 43.4353 14.8537 44.9277C14.872 45.0633 14.949 45.188 15.0003 45.32C15.1213 45.243 15.257 45.188 15.3597 45.0927C16.115 44.3923 16.863 43.6847 17.6147 42.9807C18.2233 42.9403 18.612 43.2813 18.9347 43.736C18.964 43.9633 18.9163 44.275 19.0447 44.407C19.316 44.6857 19.6827 44.869 20.0787 45.1367V44.627C20.1777 43.791 19.789 43.076 19.019 42.702C18.6083 42.504 18.1977 42.3097 17.93 41.921C17.0023 40.5643 16.0747 39.2113 15.1653 37.8473C14.8463 37.3707 15.114 36.872 15.686 36.806C15.752 36.7987 15.818 36.806 15.9023 36.806C15.972 36.4687 16.038 36.1497 16.1113 35.7757C15.488 35.992 14.927 36.2083 14.487 36.6337C14.0837 37.0187 13.8637 37.4917 13.981 38.0673C14.08 38.8667 14.1753 39.666 14.278 40.4653L14.2743 40.4543Z" fill="#87C4DF"/>
  <path d="M38.0893 40.579C37.6273 40.095 37.059 39.7613 36.399 39.6037C34.65 39.1893 32.901 38.7823 31.152 38.3717C30.9173 38.3167 30.6827 38.2727 30.4297 38.2213C30.393 38.467 30.36 38.6687 30.3307 38.8703C30.3087 39.0243 30.2867 39.1783 30.2683 39.3323C30.0153 41.2683 29.7623 43.208 29.5093 45.144C29.4727 45.2943 29.4433 45.4483 29.403 45.5987C29.2857 46.0203 28.8933 46.1707 28.5267 45.9287C28.435 45.87 28.358 45.7967 28.2773 45.7197C27.654 45.122 27.038 44.517 26.4073 43.9303C26.235 43.769 26.0883 43.461 25.784 43.5967C25.4503 43.747 25.52 44.0843 25.5237 44.374C25.5163 44.5023 25.5053 44.627 25.5017 44.7553C25.4797 45.7453 25.4467 46.7353 25.0397 47.6667C24.9003 47.982 24.7427 48.1727 24.574 48.081C24.31 47.938 24.3907 47.7033 24.4603 47.4833C24.5777 47.1203 24.6987 46.7573 24.816 46.3943C24.8417 45.9653 24.8673 45.5363 24.893 45.1073C24.86 45.1 24.8307 45.089 24.7977 45.0817C24.244 45.496 23.4813 45.7197 23.4703 46.618C23.2173 47.6007 22.9643 48.5833 22.704 49.5953C22.8507 49.5953 22.9387 49.5953 23.023 49.5953C24.6583 49.5403 26.2643 49.28 27.8483 48.8877C30.9283 48.125 33.7407 46.794 36.278 44.891C37.1323 44.2493 37.928 43.5343 38.7493 42.8523C38.984 42.6397 39.2223 42.427 39.4937 42.1813C39.0097 41.6167 38.5733 41.0703 38.093 40.568L38.0893 40.579Z" fill="#87C4DF"/>
  <path d="M27.4597 33.2897C27.4597 33.2897 27.4707 33.275 27.4743 33.264C27.4707 33.2713 27.467 33.2823 27.4597 33.2897Z" fill="#403318"/>
  <path d="M21.1383 5.77867C21.01 5.709 20.8303 5.66867 20.7717 5.56233C20.724 5.47067 20.79 5.28733 20.8487 5.17C21.505 3.905 23.5657 4.02967 24.2917 4.95C24.5667 5.29467 24.5263 5.59167 24.1487 5.69433C24.101 5.709 24.0423 5.676 23.9873 5.66133C23.7857 5.25067 23.463 4.994 23.012 4.90233C22.2493 4.752 21.604 5.05267 21.1347 5.77867H21.1383Z" fill="#45361A"/>
  <path d="M19.5653 8.91733C20.1887 8.976 20.7057 9.218 21.0063 9.78633C21.065 9.9 21.0467 10.1347 20.966 10.2227C20.823 10.373 20.6653 10.2447 20.5443 10.1127C20.2987 9.845 20.0567 9.57733 19.6497 9.559C19.338 9.548 19.0703 9.614 18.8613 9.86333C18.799 9.93667 18.7367 10.0357 18.6523 10.065C18.5277 10.109 18.3443 10.153 18.26 10.0943C18.183 10.0393 18.1463 9.823 18.1903 9.72033C18.3737 9.306 18.7367 9.097 19.162 8.987C19.294 8.954 19.4297 8.943 19.5653 8.921V8.91733Z" fill="#45361A"/>
  <path d="M18.546 7.766C18.183 8.13267 17.7943 8.448 17.2517 8.503C16.6173 8.56533 16.137 8.29033 15.7263 7.84667C15.741 7.689 15.708 7.49833 15.785 7.381C15.8327 7.30767 16.049 7.34433 16.1883 7.32967C16.3387 7.72933 16.775 8.01167 17.193 7.97133C17.5267 7.942 17.8163 7.68533 17.853 7.392C17.897 7.37 17.9373 7.34067 17.9813 7.32967C18.1023 7.293 18.271 7.20133 18.3407 7.249C18.447 7.32233 18.4873 7.491 18.546 7.623C18.5643 7.66333 18.546 7.71833 18.546 7.76967V7.766Z" fill="#45361A"/>
  <path d="M24.8673 8.68267C25.124 8.69733 25.4357 8.78533 25.6337 9.075C25.7107 9.185 25.751 9.35 25.7363 9.482C25.7217 9.62867 25.608 9.72767 25.4357 9.63967C25.3403 9.592 25.2487 9.53333 25.157 9.47833C24.7573 9.23633 24.4933 9.28767 24.2257 9.66533C24.123 9.80833 24.0423 9.988 23.8113 9.86333C23.5913 9.74233 23.6023 9.559 23.672 9.35367C23.7967 8.99433 24.3173 8.68267 24.871 8.68267H24.8673Z" fill="#45361A"/>
  <path d="M21.087 28.5083C21.1457 28.5267 21.208 28.5413 21.2667 28.5597C21.5233 28.6 21.7983 28.7173 22.0367 28.6697C22.869 28.49 23.6867 28.2517 24.5117 28.039C25.0067 27.9143 25.5017 27.7897 25.993 27.665C26.268 27.5953 26.5393 27.5513 26.7373 27.83C26.9317 28.1013 26.9317 28.391 26.7557 28.6587C26.2423 29.447 25.7473 30.2537 25.1827 31.0053C24.6217 31.7533 23.793 32.076 22.8947 32.208C22.1393 32.318 21.3877 32.2887 20.6397 32.1383C19.679 31.9477 18.9127 31.4563 18.359 30.646C17.93 30.0227 17.5047 29.3993 17.0903 28.7687C17.0023 28.633 16.9253 28.468 16.9107 28.3103C16.8703 27.8777 17.2407 27.5697 17.666 27.6723C18.5937 27.8923 19.514 28.1233 20.4417 28.347C20.658 28.402 20.878 28.457 21.0943 28.512L21.087 28.5083ZM18.3077 29.5497C18.3077 29.5497 18.282 29.579 18.271 29.5937C18.4983 29.8907 18.7257 30.184 18.9493 30.481C19.3123 30.9613 19.7817 31.2913 20.3537 31.4563C21.3547 31.7423 22.374 31.757 23.3823 31.4967C24.4053 31.2327 24.97 30.4663 25.4137 29.5717C25.1937 29.6377 24.9957 29.7403 24.7903 29.821C24.1963 30.052 23.606 30.3013 23.001 30.4957C21.9853 30.822 20.999 30.6387 20.0383 30.2537C19.4627 30.0227 18.887 29.7843 18.3113 29.5497H18.3077ZM17.5743 28.2627C17.556 28.2957 17.5377 28.3287 17.5157 28.3617C17.666 28.479 17.798 28.633 17.9667 28.71C18.81 29.0877 19.6533 29.458 20.5113 29.799C21.0613 30.019 21.6443 30.1583 22.242 30.0483C23.5913 29.799 24.8197 29.2307 26.0113 28.5817C26.1067 28.5303 26.158 28.3947 26.2313 28.2993C26.2093 28.2737 26.1873 28.2517 26.1617 28.226C26.0297 28.2553 25.8977 28.2773 25.7693 28.314C24.8013 28.5707 23.8297 28.82 22.869 29.0913C22.1797 29.2857 21.5087 29.2783 20.8157 29.073C19.855 28.787 18.8797 28.5597 17.9117 28.3103C17.8017 28.281 17.688 28.281 17.5743 28.2663V28.2627Z" fill="#483A21"/>
  <path d="M29.2893 22.8323C28.985 23.1073 28.6183 23.155 28.2223 23.155C27.2873 23.1477 26.356 23.1623 25.421 23.1697C25.3147 23.1697 25.2083 23.188 25.0983 23.1953C24.8233 23.177 24.5483 23.1587 24.2733 23.1403C23.9213 22.9313 23.8223 22.6013 23.8957 22.2273C24.1267 21.0467 24.8123 20.2363 25.9673 19.899C27.1957 19.5397 28.2443 19.9137 29.1097 20.8377C29.15 20.8817 29.183 20.9293 29.2233 20.9733C29.8137 21.6663 29.8283 22.1283 29.2893 22.8323ZM28.0133 22.6453C28.1453 22.6343 28.27 22.6307 28.3947 22.6123C28.9997 22.528 29.249 22.0257 28.908 21.5197C28.3323 20.6653 27.5037 20.262 26.4807 20.3867C25.5053 20.504 24.849 21.0907 24.5337 22.011C24.321 22.6307 24.4933 22.6747 24.9993 22.649C25.102 22.6453 25.2083 22.649 25.344 22.649C25.08 21.923 25.2633 21.373 25.8537 20.966C26.3523 20.625 26.9133 20.6397 27.4267 20.988C28.006 21.384 28.1857 21.8717 28.0133 22.649V22.6453ZM26.719 21.2483C26.3633 21.241 26.1067 21.4207 26.1067 21.6077C26.1067 21.835 26.2533 21.9377 26.466 21.9487C26.7007 21.9633 26.9647 21.7433 26.928 21.5233C26.906 21.4023 26.763 21.2997 26.719 21.2447V21.2483Z" fill="#44371E"/>
  <path d="M18.7293 23.1917C18.0217 23.177 17.314 23.1623 16.61 23.1513C16.236 23.144 15.862 23.1367 15.488 23.1403C15.0883 23.1477 14.7327 23.045 14.4283 22.7773C14.0103 22.143 14.0177 21.7653 14.4613 21.1273C14.5127 21.0577 14.5567 20.9807 14.6043 20.911C15.6383 19.866 16.819 19.4443 18.2453 20.0383C19.074 20.526 19.679 21.1933 19.8807 22.1577C20.0017 22.7407 19.6533 23.188 19.0813 23.2137C18.964 23.221 18.8503 23.199 18.733 23.1917H18.7293ZM18.4983 22.605C18.6963 22.605 18.876 22.6233 19.0447 22.6013C19.2243 22.5793 19.3123 22.4657 19.2793 22.2677C19.052 20.9477 17.6587 20.0677 16.3717 20.449C15.6713 20.658 15.0773 21.0247 14.773 21.7287C14.586 22.165 14.8793 22.6013 15.3523 22.6197C15.5063 22.627 15.6603 22.6197 15.829 22.6197C15.5907 21.9707 15.6933 21.4793 16.1223 21.1127C16.643 20.6653 17.2223 20.603 17.8127 20.9293C18.3737 21.241 18.6267 21.835 18.502 22.605H18.4983ZM16.8483 21.9523C17.2077 21.9413 17.4827 21.7177 17.4643 21.516C17.4423 21.285 17.259 21.2593 17.0757 21.2557C16.8117 21.2557 16.566 21.4573 16.621 21.67C16.654 21.7947 16.797 21.8937 16.8483 21.9523Z" fill="#44371E"/>
  <path d="M19.8 26.2533C19.6717 25.8023 19.8623 25.454 20.2363 25.2633C20.79 24.9847 20.933 24.5593 20.8743 23.9873C20.8193 23.463 20.801 22.935 20.7607 22.4107C20.7423 22.198 20.7313 21.9927 20.9697 21.8863C21.2557 21.9267 21.3473 22.1247 21.384 22.3777C21.3987 22.4913 21.4243 22.605 21.4463 22.7187C21.45 23.3383 21.4427 23.958 21.4647 24.574C21.4793 25.0103 21.2887 25.3037 20.933 25.5163C20.823 25.5823 20.7057 25.6373 20.6067 25.718C20.5443 25.7657 20.5077 25.8463 20.4563 25.9087C20.5407 25.96 20.6433 26.0737 20.7093 26.059C21.0687 25.9673 21.3143 26.1507 21.56 26.356C21.868 26.6163 21.934 26.62 22.242 26.367C22.4803 26.169 22.7223 26.0003 23.0597 26.0187C23.1587 26.0223 23.265 25.927 23.3677 25.8757C23.287 25.806 23.221 25.7107 23.1293 25.6667C22.594 25.421 22.297 25.0433 22.3227 24.4237C22.3447 23.8737 22.33 23.3237 22.3337 22.7737C22.396 22.539 22.4583 22.3043 22.517 22.0697C22.6343 22.0147 22.7517 21.9597 22.8653 21.9047C23.078 22.022 23.1367 22.1907 23.0597 22.4253C22.836 23.1037 22.9277 23.8077 22.935 24.5007C22.935 24.7537 23.045 24.9553 23.2833 25.069C23.309 25.08 23.331 25.102 23.3567 25.1167C24.0203 25.5383 24.101 25.74 23.8957 26.4183C23.3567 26.697 22.6857 26.6603 22.2347 27.1443C22.1943 27.1883 22.1063 27.1847 22.0403 27.203C21.8313 27.1187 21.6187 27.0453 21.4133 26.9537C21.2263 26.8693 21.0467 26.763 20.8597 26.6677C20.4417 26.6933 20.0897 26.554 19.8037 26.246L19.8 26.2533Z" fill="#483A21"/>
  <path d="M13.882 19.305C14.0213 16.896 17.556 17.4277 19.2133 17.721C19.69 17.9153 19.866 18.744 19.4297 19.0593C18.7183 19.2757 17.9227 18.9127 17.1747 19.0153C15.9317 18.557 14.8317 20.2803 13.882 19.305ZM19.0593 18.5057C18.6927 17.534 16.8373 18.304 15.9573 18.051C15.3487 18.0437 14.674 18.381 14.5603 18.975C15.9537 18.3443 17.49 18.2563 19.0593 18.5057Z" fill="#45361A"/>
  <path d="M20.614 33.5867C20.5003 33.286 20.559 33.1577 20.9147 32.934C20.9403 32.9487 20.9697 32.9633 20.922 32.9377C20.9733 32.9377 20.944 32.9377 20.911 32.9377C21.1567 32.956 21.4023 32.9817 21.6517 32.9853C22.0257 32.9927 22.396 32.9853 22.77 32.9853C23.2393 32.9927 23.3677 33.2163 23.1697 33.6563C23.0633 33.6563 22.957 33.6673 22.8507 33.6673C22.1063 33.66 21.3547 33.7957 20.6177 33.5867H20.614Z" fill="#45361A"/>
  <path d="M14.4173 20.6617C14.4173 20.6617 14.4027 20.6507 14.3917 20.647C14.399 20.6507 14.41 20.6543 14.4173 20.658V20.6617Z" fill="#E3BA8C"/>
  <path d="M24.9847 35.948C24.97 35.7647 25.058 35.6913 25.234 35.717C25.1497 35.794 25.069 35.871 24.9847 35.948Z" fill="#483A21"/>
  <path d="M25.3403 35.6583C25.322 35.5043 25.399 35.4603 25.5383 35.486C25.4723 35.5447 25.4063 35.5997 25.3403 35.6583Z" fill="#483A21"/>
  <path d="M26.4 34.7123C26.3853 34.5583 26.4623 34.5107 26.6017 34.54C26.5357 34.5987 26.466 34.6573 26.4 34.7123Z" fill="#44371E"/>
  <path d="M26.1727 34.9103C26.1287 34.7453 26.213 34.7307 26.3413 34.7637C26.2863 34.8113 26.2277 34.8627 26.1727 34.9103Z" fill="#44371E"/>
  <path d="M24.8123 36.069C24.871 36.0287 24.9297 35.9883 24.9883 35.9443C24.9297 35.9847 24.871 36.025 24.8123 36.069Z" fill="#483A21"/>
  <path d="M25.5823 35.442C25.619 35.4127 25.652 35.3833 25.6887 35.3503C25.652 35.3797 25.619 35.409 25.5823 35.442Z" fill="#483A21"/>
  <path d="M17.8347 35.0643C17.853 35.0753 17.8713 35.09 17.8897 35.101C17.8787 35.112 17.8713 35.1193 17.8603 35.1303C17.8493 35.1083 17.842 35.0863 17.831 35.0643H17.8347Z" fill="#44371E"/>
  <path d="M18.0437 35.244C18.073 35.2697 18.1023 35.299 18.128 35.3247C18.0987 35.299 18.0693 35.2697 18.0437 35.244Z" fill="#44371E"/>
  <path d="M25.2743 34.9983C25.2743 35.2367 25.113 35.2843 24.9187 35.2953C25.036 35.1963 25.157 35.0973 25.2743 34.9983Z" fill="#483A21"/>
  <path d="M26.631 33.7517C26.642 33.9753 26.488 34.023 26.312 34.0487C26.4183 33.9497 26.5247 33.8507 26.631 33.7517Z" fill="#44371E"/>
  <path d="M25.5567 34.749C25.575 34.958 25.4577 35.0167 25.2743 34.9983C25.3697 34.914 25.4613 34.8333 25.5567 34.749Z" fill="#483A21"/>
  <path d="M24.9223 35.2917C24.8417 35.3503 24.761 35.409 24.6767 35.4677C24.7573 35.409 24.838 35.3503 24.9223 35.2917Z" fill="#483A21"/>
  <path d="M26.444 34.2393C26.4697 34.2247 26.5027 34.199 26.5137 34.2063C26.5357 34.221 26.554 34.254 26.5613 34.2797C26.5613 34.287 26.5283 34.309 26.5063 34.3237C26.4917 34.3053 26.477 34.2833 26.444 34.2393Z" fill="#44371E"/>
  <path d="M32.3583 23.4337C32.087 23.3713 31.999 23.1917 32.043 22.9313C32.0577 22.8433 32.0577 22.7553 32.065 22.671C32.1567 22.5097 32.2263 22.3337 32.3473 22.2017C32.3987 22.1467 32.5783 22.154 32.659 22.2017C32.7397 22.253 32.8387 22.4143 32.813 22.4803C32.6847 22.8067 32.5123 23.1183 32.3583 23.4373V23.4337Z" fill="#483A21"/>
  <path d="M11.649 22.3703C11.693 22.5573 11.7297 22.748 11.7847 22.9313C11.8507 23.1403 11.77 23.2687 11.5867 23.3493C11.374 23.4447 11.3227 23.265 11.2383 23.144C11.2237 23.122 11.2017 23.1 11.1833 23.078C11.121 22.9387 11.0403 22.8067 11.0073 22.6637C10.9597 22.462 10.9817 22.264 11.2127 22.1687C11.429 22.077 11.5353 22.242 11.649 22.374V22.3703Z" fill="#483A21"/>
  <path d="M18.3077 29.5497C18.8833 29.7843 19.459 30.0227 20.0347 30.2537C20.999 30.6387 21.9853 30.8183 22.9973 30.4957C23.6023 30.3013 24.1927 30.052 24.7867 29.821C24.992 29.7403 25.19 29.6377 25.41 29.5717C24.9663 30.4663 24.398 31.2327 23.3787 31.4967C22.3703 31.757 21.351 31.7423 20.35 31.4563C19.778 31.2913 19.3087 30.9613 18.9457 30.481C18.722 30.184 18.4947 29.8907 18.2673 29.5937C18.2783 29.579 18.293 29.5643 18.304 29.5497H18.3077Z" fill="#F4F4EE"/>
  <path d="M17.5743 28.2627C17.688 28.2773 17.8017 28.281 17.9117 28.3067C18.8833 28.556 19.8587 28.7833 20.8157 29.0693C21.5087 29.2783 22.1797 29.282 22.869 29.0877C23.8333 28.8163 24.8013 28.567 25.7693 28.3103C25.8977 28.2773 26.0297 28.2517 26.1617 28.2223C26.1837 28.248 26.2057 28.27 26.2313 28.2957C26.158 28.391 26.1103 28.5267 26.0113 28.578C24.816 29.2233 23.5877 29.7953 22.242 30.0447C21.6443 30.1547 21.0613 30.0153 20.5113 29.7953C19.6533 29.4543 18.81 29.084 17.9667 28.7063C17.798 28.6293 17.666 28.4753 17.5157 28.358C17.534 28.325 17.5523 28.292 17.5743 28.259V28.2627Z" fill="#F2F0E7"/>
  <path d="M19.0593 18.5057C17.9777 18.348 16.9143 18.3663 15.8547 18.48C15.5687 18.5093 15.3047 18.7073 15.0297 18.832C14.96 18.865 14.905 18.9383 14.8353 18.9603C14.7473 18.986 14.652 18.9713 14.5603 18.975C14.5787 18.887 14.5713 18.777 14.6227 18.7183C14.971 18.3077 15.3707 18.029 15.9573 18.051C16.819 18.084 17.6843 18.0547 18.546 18.062C18.898 18.062 19.0593 18.2123 19.0557 18.5057H19.0593Z" fill="#A58156"/>
  <path d="M20.9073 32.9377C20.9403 32.9377 20.9697 32.9377 20.9183 32.9377C20.966 32.9633 20.9367 32.9487 20.911 32.934L20.9073 32.9377Z" fill="#EABF93"/>
  <path d="M25.3367 18.9897C26.279 19.0813 27.2653 18.8357 28.171 19.184C28.2113 19.206 28.6293 19.4297 28.6807 19.4553C28.7613 19.4333 28.9117 19.4993 28.908 19.5543C29.0583 19.7083 29.392 19.5837 29.469 19.657C29.8943 19.47 30.0557 19.0593 29.5937 18.381C28.325 17.0317 26.3853 17.9043 24.75 17.5963C24.7427 17.6073 24.739 17.6183 24.739 17.6293C24.4053 17.7283 24.2037 17.9667 24.101 18.293C24.1083 18.3187 24.1303 18.3407 24.0937 18.3517C24.079 18.3847 24.0643 18.4177 24.0497 18.4543C24.0643 18.458 24.079 18.4653 24.0937 18.4727C24.1487 19.2463 24.739 19.261 25.333 18.9897M25.6923 18.425C25.3477 18.436 24.9847 18.59 24.6583 18.4617C25.1973 17.6623 27.0233 18.3297 27.973 18.1023C28.424 18.0877 29.1867 18.6267 29.392 19.0557C28.9153 19.0153 28.5303 18.7477 28.116 18.5313C27.841 18.4983 27.5623 18.4617 27.2873 18.425C26.7557 18.425 26.224 18.425 25.696 18.425C25.696 18.48 25.696 18.5387 25.696 18.5937" fill="#45361A"/>
  <path d="M28.0133 22.6453C28.1453 22.6343 28.27 22.6307 28.3947 22.6123C28.9997 22.528 29.249 22.0257 28.908 21.5197C28.3323 20.6653 27.5037 20.262 26.4807 20.3867C25.5053 20.504 24.849 21.0907 24.5337 22.011C24.321 22.6307 24.4933 22.6747 24.9993 22.649C25.102 22.6453 25.2083 22.649 25.344 22.649C25.08 21.923 25.2633 21.373 25.8537 20.966C26.3523 20.625 26.9133 20.6397 27.4267 20.988C28.006 21.384 28.1857 21.8717 28.0133 22.649V22.6453Z" fill="white"/>
  <path d="M18.4983 22.605C18.6963 22.605 18.876 22.6233 19.0447 22.6013C19.2243 22.5793 19.3123 22.4657 19.2793 22.2677C19.052 20.9477 17.6587 20.0677 16.3717 20.449C15.6713 20.658 15.0773 21.0247 14.773 21.7287C14.586 22.165 14.8793 22.6013 15.3523 22.6197C15.5063 22.627 15.6603 22.6197 15.829 22.6197C15.5907 21.9707 15.6933 21.4793 16.1223 21.1127C16.643 20.6653 17.2223 20.603 17.8127 20.9293C18.3737 21.241 18.6267 21.835 18.502 22.605H18.4983Z" fill="white"/>
</svg>
